<?xml version="1.0" encoding="utf-8"?>
<svg width="64px" height="64px" viewBox="0 0 64 64" version="1.1" xmlns:xlink="http://www.w3.org/1999/xlink" xmlns="http://www.w3.org/2000/svg">
  <desc>Created with Lunacy</desc>
  <path d="M0 32C0 14.3364 14.314 0 32 0C49.686 0 64 14.3364 64 32C64 49.6636 49.6636 64 32 64C14.3364 64 0 49.6636 0 32ZM35.238 13.2421C34.4341 7.8381 32.268 5.40405 32.0893 5.20307C31.9107 5.38172 29.7223 7.8381 28.9407 13.2421C29.9232 13.4208 30.9951 13.5101 32.0893 13.5324C33.1835 13.5324 34.2554 13.4208 35.238 13.2421ZM32.0223 29.5213C33.2282 29.499 34.3894 29.4096 35.4613 29.2087C35.4485 27.0688 35.4649 23.4761 35.4771 20.784L35.4771 20.7828C35.4863 18.7557 35.4932 17.2395 35.4836 17.2394C35.4836 15.8995 35.3943 14.716 35.2603 13.6218C34.2777 13.8004 33.1835 13.8897 32.067 13.9121C30.9505 13.9121 29.8562 13.8004 28.8737 13.6218C28.7397 14.716 28.6504 15.9218 28.6504 17.2394C28.6504 17.2617 28.5834 25.4571 28.5834 29.2087C29.6553 29.4096 30.8388 29.499 32.0223 29.5213ZM28.1591 29.164L21.1919 29.1417L28.2484 18.3782L28.1591 29.164ZM35.8856 18.3782L42.7858 29.1417L35.8409 29.164L35.8856 18.3782ZM32.2456 31.3971C30.9728 31.3971 29.7223 31.2854 28.5834 31.0844L28.5834 29.5883C29.7223 29.7893 30.9728 29.9009 32.2456 29.9009C33.3622 29.9009 34.4341 29.8116 35.4613 29.6553L35.4613 31.1514C34.4341 31.3077 33.3622 31.3971 32.2456 31.3971ZM10.1382 42.5401L16.6588 42.5401C19.2268 42.5401 21.2812 40.4857 21.2812 37.9623L21.2142 31.5534L24.4745 31.5534L24.4745 38.9895C24.4745 39.0119 24.4075 40.4634 24.0056 41.2226C23.2017 42.7188 22.1298 43.8576 20.723 44.7062C19.1821 45.6441 17.7976 45.8228 15.8102 45.8228L10.1382 45.8228L10.1382 42.5401ZM53.8618 49.4403L47.3412 49.4403C40.9993 49.4403 35.8186 44.3043 35.8186 37.9623L35.8186 31.5534L39.1235 31.5534L39.1235 38.9895C39.1235 39.0565 39.1905 40.575 39.6371 41.4013C40.4634 42.9644 41.6022 44.1479 43.0537 45.0412C44.6615 46.0237 46.113 46.2247 48.1898 46.2247L53.8618 46.2247L53.8618 49.4403ZM10.1382 49.4403L16.6588 49.4403C23.0007 49.4403 28.1591 44.3043 28.1814 37.9846L28.1814 31.5757L24.8765 31.5757L24.8765 39.0119C24.8765 39.0789 24.8095 40.5974 24.3629 41.4236C23.5366 42.9644 22.4201 44.1703 20.9463 45.0635C19.3161 46.0684 17.887 46.247 15.8102 46.247L10.1382 46.247L10.1382 49.4403ZM48.2121 45.8451L53.8842 45.8451L53.8842 42.5625L47.3636 42.5625C44.7955 42.5625 42.7411 40.508 42.7411 37.9846L42.8081 31.5757L39.5478 31.5757L39.5478 39.0119C39.5478 39.0119 39.6148 40.4857 40.0167 41.2449C40.8207 42.7188 41.8925 43.88 43.2994 44.7285C44.8179 45.6664 46.2024 45.8451 48.2121 45.8451ZM30.5708 31.7544C30.7495 34.635 32.0893 36.3098 32.0893 36.3098C32.0893 36.3098 33.4292 34.4787 33.4738 31.799C33.0942 31.799 32.6923 31.8214 32.2903 31.8214C31.7097 31.8214 31.1291 31.799 30.5708 31.7544Z" id="ic_joyjet" fill="#FFFFFF" fill-rule="evenodd" stroke="none" />
</svg>