<?xml version="1.0" encoding="utf-8"?>
<svg width="32px" height="23px" viewBox="0 0 32 23" version="1.1" xmlns:xlink="http://www.w3.org/1999/xlink" xmlns="http://www.w3.org/2000/svg">
  <desc>Created with Lunacy</desc>
  <path d="M1.6 3.2L30.4 3.2C30.8667 3.2 31.25 3.05 31.55 2.75C31.85 2.45 32 2.06667 32 1.6C32 1.13333 31.85 0.750003 31.55 0.449997C31.25 0.149997 30.8667 0 30.4 0L1.6 0C1.13333 0 0.750001 0.149997 0.45 0.449997C0.149999 0.750003 0 1.13333 0 1.6C0 2.06667 0.149999 2.45 0.45 2.75C0.750001 3.05 1.13333 3.2 1.6 3.2ZM30.4 12.8L1.6 12.8C1.13333 12.8 0.750001 12.65 0.45 12.35C0.149999 12.05 0 11.6667 0 11.2C0 10.7333 0.149999 10.35 0.45 10.05C0.750001 9.75 1.13333 9.6 1.6 9.6L30.4 9.6C30.8667 9.6 31.25 9.75 31.55 10.05C31.85 10.35 32 10.7333 32 11.2C32 11.6667 31.85 12.05 31.55 12.35C31.25 12.65 30.8667 12.8 30.4 12.8ZM30.4 22.4L1.6 22.4C1.13333 22.4 0.750001 22.25 0.45 21.95C0.149999 21.65 0 21.2667 0 20.8C0 20.3333 0.149999 19.95 0.45 19.65C0.750001 19.35 1.13333 19.2 1.6 19.2L30.4 19.2C30.8667 19.2 31.25 19.35 31.55 19.65C31.85 19.95 32 20.3333 32 20.8C32 21.2667 31.85 21.65 31.55 21.95C31.25 22.25 30.8667 22.4 30.4 22.4Z" id="Page-1" fill="#FFFFFF" fill-rule="evenodd" stroke="none" />
</svg>